<?xml version="1.0" standalone="no"?>
<!DOCTYPE svg PUBLIC "-//W3C//DTD SVG 20010904//EN"
 "http://www.w3.org/TR/2001/REC-SVG-20010904/DTD/svg10.dtd">
<svg version="1.0" xmlns="http://www.w3.org/2000/svg"
 width="260.000000pt" height="260.000000pt" viewBox="0 0 260.000000 260.000000"
 preserveAspectRatio="xMidYMid meet">
<metadata>
Created by potrace 1.14, written by Peter Selinger 2001-2017
</metadata>
<g transform="translate(0.000000,260.000000) scale(0.100000,-0.100000)"
fill="#000000" stroke="none">
<path d="M0 1300 l0 -1300 1300 0 1300 0 0 1300 0 1300 -1300 0 -1300 0 0
-1300z m804 214 c19 -18 19 -20 6 -45 -12 -21 -50 -25 -68 -7 -17 17 -15 45 6
57 24 15 38 13 56 -5z m1290 0 c19 -19 20 -36 4 -52 -24 -24 -78 -8 -78 24 0
17 28 44 45 44 7 0 21 -7 29 -16z m-1626 -34 c41 -25 49 -46 27 -70 -23 -25
-36 -25 -58 0 -20 24 -69 26 -87 5 -18 -22 7 -47 63 -63 68 -21 97 -51 97
-103 0 -24 -7 -52 -15 -63 -47 -62 -171 -61 -229 3 -17 19 -17 21 1 45 23 32
30 32 73 -4 38 -33 56 -36 83 -16 30 23 14 66 -25 66 -10 0 -26 4 -36 9 -9 5
-29 14 -43 21 -31 14 -49 48 -49 94 0 78 120 124 198 76z m1149 -10 c6 -14 22
-60 34 -102 13 -43 25 -75 28 -72 3 3 18 36 32 72 25 64 28 67 60 67 32 0 34
-2 58 -72 25 -72 41 -93 41 -53 0 11 4 28 9 38 5 9 15 37 21 62 20 75 30 90
62 90 24 0 28 -4 28 -27 0 -24 -10 -65 -30 -118 -4 -11 -13 -40 -20 -65 -6
-25 -16 -53 -21 -62 -5 -10 -9 -26 -9 -35 -1 -26 -24 -53 -47 -53 -13 0 -25
13 -37 43 -10 23 -21 51 -26 62 -4 11 -11 28 -14 38 -7 21 -36 23 -36 2 0 -8
-4 -23 -9 -33 -5 -9 -14 -30 -21 -47 -22 -55 -27 -60 -51 -60 -21 0 -27 9 -46
65 -57 168 -84 264 -79 277 9 23 59 12 73 -17z m-965 -22 c2 -28 8 -34 31 -36
25 -3 28 -7 25 -35 -2 -27 -8 -33 -30 -35 l-28 -3 0 -100 0 -100 -32 3 -33 3
-3 97 c-3 91 -4 97 -25 100 -17 2 -23 11 -25 35 -3 26 1 32 20 35 14 2 24 11
26 23 6 39 12 45 41 45 26 0 30 -4 33 -32z m408 -41 l45 -2 3 -132 3 -133 -34
0 c-18 0 -38 5 -44 11 -8 8 -13 8 -17 0 -4 -6 -27 -11 -51 -11 -79 0 -134 78
-119 169 7 45 20 62 64 90 26 16 44 20 70 16 19 -3 55 -6 80 -8z m295 -11 l29
-23 1 -114 0 -114 -32 -3 -33 -3 0 94 c0 82 -3 96 -20 112 -20 18 -21 18 -48
-2 -25 -19 -27 -25 -30 -112 l-3 -91 -29 0 -29 0 -3 126 c-2 69 0 131 3 136 4
6 22 8 41 5 19 -3 41 -1 49 4 26 16 73 9 104 -15z m-545 -121 l0 -135 -35 0
-35 0 0 128 c0 71 3 132 7 135 3 4 19 7 35 7 l28 0 0 -135z m1285 0 l0 -130
-32 -3 -33 -3 0 129 c0 71 3 132 7 136 4 4 19 6 33 4 l25 -3 0 -130z m123 50
c3 -91 15 -125 47 -125 38 0 50 27 52 114 1 45 2 84 3 89 0 11 58 9 62 -3 2
-5 2 -66 0 -135 l-3 -125 -29 0 c-16 0 -32 5 -36 11 -4 8 -9 8 -17 0 -6 -6
-30 -11 -53 -11 -35 0 -47 5 -68 31 -24 28 -26 38 -26 128 0 54 3 101 7 105 4
4 19 6 33 4 24 -3 25 -6 28 -83z"/>
<path d="M937 1332 c-25 -28 -22 -84 6 -110 30 -28 38 -28 71 3 32 29 34 72 6
103 -25 27 -61 28 -83 4z"/>
</g>
</svg>
